<svg xmlns="http://www.w3.org/2000/svg" width="1200" height="630" viewBox="0 0 1200 630">
  <defs>
    <linearGradient id="bg" x1="0%" y1="0%" x2="100%" y2="100%">
      <stop offset="0%" style="stop-color:#0b0b10;stop-opacity:1" />
      <stop offset="100%" style="stop-color:#14101f;stop-opacity:1" />
    </linearGradient>
    <linearGradient id="violet" x1="0%" y1="0%" x2="100%" y2="100%">
      <stop offset="0%" style="stop-color:#8b5cf6;stop-opacity:1" />
      <stop offset="100%" style="stop-color:#7c4ef0;stop-opacity:1" />
    </linearGradient>
    <filter id="blur1">
      <feGaussianBlur stdDeviation="70"/>
    </filter>
  </defs>

  <!-- Background -->
  <rect width="1200" height="630" fill="url(#bg)"/>

  <!-- Decorative glow -->
  <circle cx="980" cy="110" r="240" fill="#8b5cf6" opacity="0.16" filter="url(#blur1)"/>
  <circle cx="160" cy="540" r="200" fill="#7c4ef0" opacity="0.12" filter="url(#blur1)"/>

  <!-- Brand mark — violet tile + stacked "F" bars -->
  <g transform="translate(100 150) scale(0.56)">
    <rect width="100" height="100" rx="24" fill="url(#violet)"/>
    <g transform="translate(7 -5) skewX(-9)" fill="#ffffff">
      <rect x="28" y="22" width="48" height="12.5" rx="6.25"/>
      <rect x="28" y="40" width="37" height="12.5" rx="6.25"/>
      <rect x="28" y="58" width="27" height="12.5" rx="6.25"/>
      <rect x="28" y="76" width="17" height="12.5" rx="6.25"/>
    </g>
  </g>
  <text x="172" y="190" font-family="system-ui, -apple-system, sans-serif" font-size="32" font-weight="700" fill="#efeff4">Foldera</text>

  <!-- Top accent rule -->
  <rect x="100" y="232" width="120" height="4" rx="2" fill="url(#violet)"/>

  <!-- Headline -->
  <text x="100" y="320" font-family="system-ui, -apple-system, sans-serif" font-size="58" font-weight="800" fill="#efeff4">Konec přepisování dokladů.</text>
  <text x="100" y="392" font-family="system-ui, -apple-system, sans-serif" font-size="58" font-weight="800" fill="#b9a3ff">Vy už jen kontrolujete v ABRA Flexi.</text>

  <!-- Subtitle -->
  <text x="100" y="452" font-family="system-ui, -apple-system, sans-serif" font-size="25" fill="#9c9cac">Faktury · zálohové faktury · dobropisy · účtenky - automaticky vytěženo a založeno.</text>

  <!-- URL -->
  <text x="100" y="560" font-family="system-ui, -apple-system, sans-serif" font-size="22" font-weight="600" fill="#6f6f80">foldera.cz</text>
</svg>
